<?xml version="1.0" encoding="iso-8859-1"?>
<!-- Generator: Adobe Illustrator 19.0.0, SVG Export Plug-In . SVG Version: 6.00 Build 0)  -->
<svg version="1.1" id="Layer_1" xmlns="http://www.w3.org/2000/svg" xmlns:xlink="http://www.w3.org/1999/xlink" x="0px" y="0px"
	 viewBox="0 0 512 512" style="enable-background:new 0 0 512 512;" xml:space="preserve">
<g>
	<path style="fill:#B8DDFF;" d="M500.747,164.923c-4.662,0-8.44,3.779-8.44,8.44v47.824h-47.824v16.879h56.264
		c4.662,0,8.44-3.779,8.44-8.44v-56.264C509.187,168.7,505.409,164.923,500.747,164.923z"/>
	<path style="fill:#B8DDFF;" d="M19.692,221.186v-47.824c0-4.661-3.778-8.44-8.44-8.44s-8.44,3.779-8.44,8.44v56.264
		c0,4.661,3.778,8.44,8.44,8.44h56.264v-16.879H19.692z"/>
</g>
<g>
	<rect x="378.194" y="430.643" style="fill:#0E0A57;" width="77.543" height="81.357"/>
	<rect x="56.264" y="430.643" style="fill:#0E0A57;" width="77.543" height="81.357"/>
</g>
<path style="fill:#5BACF5;" d="M433.973,22.01l14.505,68.012L256,123.78L63.522,90.022L78.027,22.01
	C80.603,9.902,92.846,0,105.224,0h301.551C419.154,0,431.397,9.902,433.973,22.01z"/>
<polygon style="fill:#B8DDFF;" points="448.478,90.022 63.522,90.022 33.758,229.624 33.758,316.27 145.059,361.337 190.07,361.337 
	256,332.08 321.93,361.337 366.941,361.337 478.242,316.27 478.242,229.624 "/>
<g>
	<path style="fill:#FF7039;" d="M478.242,316.27v45.067l-55.65,22.505l-55.65-22.505l10.96-29.257
		c3.252-8.698,13.515-15.81,22.798-15.81H478.242z"/>
	<path style="fill:#FF7039;" d="M134.099,332.08l10.96,29.257l-55.65,22.505l-55.65-22.505V316.27h77.543
		C120.584,316.27,130.847,323.381,134.099,332.08z"/>
</g>
<polygon style="fill:#FFFFFF;" points="332.89,332.08 321.93,361.337 256,383.842 190.07,361.337 179.11,332.08 "/>
<path style="fill:#4C7FE1;" d="M33.758,361.337v69.306c0,12.378,10.127,22.505,22.505,22.505h399.473
	c12.378,0,22.505-10.127,22.505-22.505v-69.306H33.758z"/>
<path style="fill:#FFFFFF;" d="M122.555,416.526H67.516c-4.662,0-8.44-3.779-8.44-8.44s3.778-8.44,8.44-8.44h55.038
	c4.662,0,8.44,3.779,8.44,8.44S127.217,416.526,122.555,416.526z"/>
<path style="fill:#5BACF5;" d="M344.434,416.526H167.566c-4.662,0-8.44-3.779-8.44-8.44s3.778-8.44,8.44-8.44h176.868
	c4.662,0,8.44,3.779,8.44,8.44S349.095,416.526,344.434,416.526z"/>
<g>
	<path style="fill:#FFFFFF;" d="M444.484,416.526h-55.038c-4.662,0-8.44-3.779-8.44-8.44s3.778-8.44,8.44-8.44h55.038
		c4.662,0,8.44,3.779,8.44,8.44S449.146,416.526,444.484,416.526z"/>
	<polygon style="fill:#FFFFFF;" points="76.802,106.901 50.637,229.624 461.363,229.624 435.198,106.901 	"/>
</g>
<g>
</g>
<g>
</g>
<g>
</g>
<g>
</g>
<g>
</g>
<g>
</g>
<g>
</g>
<g>
</g>
<g>
</g>
<g>
</g>
<g>
</g>
<g>
</g>
<g>
</g>
<g>
</g>
<g>
</g>
</svg>
